<svg width="20" height="20" viewBox="0 0 20 20" fill="none" xmlns="http://www.w3.org/2000/svg">
<path d="M15 6.66665H14.1666V4.99998C14.1666 2.69998 12.3 0.833313 9.99998 0.833313C7.69998 0.833313 5.83331 2.69998 5.83331 4.99998V6.66665H4.99998C4.08331 6.66665 3.33331 7.41665 3.33331 8.33331V16.6666C3.33331 17.5833 4.08331 18.3333 4.99998 18.3333H15C15.9166 18.3333 16.6666 17.5833 16.6666 16.6666V8.33331C16.6666 7.41665 15.9166 6.66665 15 6.66665ZM9.99998 14.1666C9.08331 14.1666 8.33331 13.4166 8.33331 12.5C8.33331 11.5833 9.08331 10.8333 9.99998 10.8333C10.9166 10.8333 11.6666 11.5833 11.6666 12.5C11.6666 13.4166 10.9166 14.1666 9.99998 14.1666ZM12.5833 6.66665H7.41665V4.99998C7.41665 3.57498 8.57498 2.41665 9.99998 2.41665C11.425 2.41665 12.5833 3.57498 12.5833 4.99998V6.66665Z" fill="#A5B0C1"/>
</svg>
